<svg xmlns="http://www.w3.org/2000/svg" viewBox="0 0 32 32" fill="none" role="img" aria-label="Ensemble loading">
  <title>Ensemble loading</title>
  <style>
    .a, .y { fill: none; stroke-linecap: round; stroke-linejoin: round; }
    .a { stroke: var(--ensemble-agent, #7c6af7); stroke-width: 3.4; }
    .y { stroke: var(--ensemble-you, #f3eee6); stroke-width: 2.35; }
    @media (prefers-reduced-motion: no-preference) {
      .a { animation: ea 3.4s cubic-bezier(.45, 0, .2, 1) infinite; }
      .y { animation: ey 3.4s cubic-bezier(.45, 0, .2, 1) infinite; }
    }
    @keyframes ea {
      0%, 10% { d: path("M14.70 8.20C14.70 8.29 14.70 8.56 14.70 8.75C14.70 8.93 14.70 9.11 14.70 9.29C14.70 9.48 14.70 9.66 14.70 9.84C14.70 10.02 14.70 10.21 14.70 10.39C14.70 10.57 14.70 10.75 14.70 10.93C14.70 11.12 14.70 11.30 14.70 11.48C14.70 11.66 14.70 11.85 14.70 12.03C14.70 12.21 14.70 12.39 14.70 12.58C14.70 12.76 14.70 12.94 14.70 13.12C14.70 13.31 14.70 13.49 14.70 13.67C14.70 13.85 14.70 14.03 14.70 14.22C14.70 14.40 14.70 14.58 14.70 14.76C14.70 14.95 14.70 15.13 14.70 15.31C14.70 15.49 14.70 15.68 14.70 15.86C14.70 16.04 14.70 16.22 14.70 16.40C14.70 16.59 14.70 16.77 14.70 16.95C14.70 17.13 14.70 17.32 14.70 17.50C14.70 17.68 14.70 17.86 14.70 18.05C14.70 18.23 14.70 18.41 14.70 18.59C14.70 18.78 14.70 18.96 14.70 19.14C14.70 19.32 14.70 19.50 14.70 19.69C14.70 19.87 14.70 20.05 14.70 20.23C14.70 20.42 14.70 20.60 14.70 20.78C14.70 20.96 14.68 21.15 14.71 21.33C14.73 21.50 14.78 21.69 14.87 21.84C14.96 22.00 15.09 22.15 15.23 22.25C15.38 22.35 15.56 22.43 15.73 22.47C15.90 22.51 16.10 22.51 16.27 22.47C16.44 22.43 16.62 22.35 16.77 22.25C16.91 22.15 17.04 22.00 17.13 21.84C17.22 21.69 17.27 21.50 17.29 21.33C17.32 21.15 17.30 20.96 17.30 20.78C17.30 20.60 17.30 20.42 17.30 20.23C17.30 20.05 17.30 19.87 17.30 19.69C17.30 19.50 17.30 19.32 17.30 19.14C17.30 18.96 17.30 18.78 17.30 18.59C17.30 18.41 17.30 18.23 17.30 18.05C17.30 17.86 17.30 17.68 17.30 17.50C17.30 17.32 17.30 17.13 17.30 16.95C17.30 16.77 17.30 16.59 17.30 16.40C17.30 16.22 17.30 16.04 17.30 15.86C17.30 15.68 17.30 15.49 17.30 15.31C17.30 15.13 17.30 14.95 17.30 14.76C17.30 14.58 17.30 14.40 17.30 14.22C17.30 14.03 17.30 13.85 17.30 13.67C17.30 13.49 17.30 13.31 17.30 13.12C17.30 12.94 17.30 12.76 17.30 12.58C17.30 12.39 17.30 12.21 17.30 12.03C17.30 11.85 17.30 11.66 17.30 11.48C17.30 11.30 17.30 11.12 17.30 10.93C17.30 10.75 17.30 10.57 17.30 10.39C17.30 10.21 17.30 10.02 17.30 9.84C17.30 9.66 17.30 9.48 17.30 9.29C17.30 9.11 17.30 8.93 17.30 8.75C17.30 8.56 17.30 8.29 17.30 8.20"); }
      32%, 40% { d: path("M8.80 5.80C8.80 5.93 8.80 6.33 8.80 6.60C8.80 6.86 8.80 7.13 8.80 7.39C8.80 7.66 8.80 7.92 8.80 8.19C8.80 8.46 8.80 8.72 8.80 8.99C8.80 9.25 8.80 9.52 8.80 9.78C8.80 10.05 8.80 10.31 8.80 10.58C8.80 10.85 8.80 11.11 8.80 11.38C8.80 11.64 8.80 11.91 8.80 12.17C8.80 12.44 8.80 12.70 8.80 12.97C8.80 13.24 8.80 13.50 8.80 13.77C8.80 14.03 8.80 14.30 8.80 14.56C8.80 14.83 8.80 15.10 8.80 15.36C8.80 15.63 8.80 15.89 8.80 16.16C8.80 16.42 8.80 16.69 8.82 16.95C8.84 17.22 8.88 17.48 8.93 17.74C8.98 18.00 9.04 18.26 9.12 18.52C9.20 18.77 9.29 19.02 9.39 19.26C9.50 19.51 9.62 19.74 9.75 19.97C9.88 20.20 10.03 20.43 10.18 20.64C10.34 20.86 10.51 21.06 10.69 21.26C10.87 21.46 11.06 21.64 11.26 21.82C11.46 21.99 11.67 22.16 11.88 22.31C12.10 22.46 12.33 22.60 12.56 22.73C12.79 22.85 13.04 22.97 13.28 23.07C13.53 23.17 13.78 23.25 14.03 23.33C14.29 23.40 14.55 23.46 14.81 23.50C15.07 23.54 15.34 23.57 15.60 23.59C15.87 23.60 16.13 23.60 16.40 23.59C16.66 23.57 16.93 23.54 17.19 23.50C17.45 23.46 17.71 23.40 17.97 23.33C18.22 23.25 18.47 23.17 18.72 23.07C18.96 22.97 19.21 22.85 19.44 22.73C19.67 22.60 19.90 22.46 20.12 22.31C20.33 22.16 20.54 21.99 20.74 21.82C20.94 21.64 21.13 21.46 21.31 21.26C21.49 21.06 21.66 20.86 21.82 20.64C21.97 20.43 22.12 20.20 22.25 19.97C22.38 19.74 22.50 19.51 22.61 19.26C22.71 19.02 22.80 18.77 22.88 18.52C22.96 18.26 23.02 18.00 23.07 17.74C23.12 17.48 23.16 17.22 23.18 16.95C23.20 16.69 23.20 16.42 23.20 16.16C23.20 15.89 23.20 15.63 23.20 15.36C23.20 15.10 23.20 14.83 23.20 14.56C23.20 14.30 23.20 14.03 23.20 13.77C23.20 13.50 23.20 13.24 23.20 12.97C23.20 12.70 23.20 12.44 23.20 12.17C23.20 11.91 23.20 11.64 23.20 11.38C23.20 11.11 23.20 10.85 23.20 10.58C23.20 10.31 23.20 10.05 23.20 9.78C23.20 9.52 23.20 9.25 23.20 8.99C23.20 8.72 23.20 8.46 23.20 8.19C23.20 7.92 23.20 7.66 23.20 7.39C23.20 7.13 23.20 6.86 23.20 6.60C23.20 6.33 23.20 5.93 23.20 5.80"); }
      62%, 86% { d: path("M6.00 4.60C6.00 4.76 6.00 5.26 6.00 5.59C6.00 5.91 6.00 6.24 6.00 6.57C6.00 6.90 6.00 7.23 6.00 7.56C6.00 7.89 6.00 8.21 6.00 8.54C6.00 8.87 6.00 9.20 6.00 9.53C6.00 9.86 6.00 10.19 6.00 10.51C6.00 10.84 6.00 11.17 6.00 11.50C6.00 11.83 6.00 12.16 6.00 12.49C6.00 12.81 6.00 13.14 6.00 13.47C6.00 13.80 6.00 14.13 6.00 14.46C6.00 14.79 6.00 15.11 6.00 15.44C6.00 15.77 5.99 16.10 6.01 16.43C6.03 16.76 6.05 17.09 6.10 17.41C6.15 17.73 6.21 18.06 6.29 18.38C6.36 18.70 6.46 19.01 6.57 19.32C6.68 19.63 6.80 19.94 6.94 20.23C7.08 20.53 7.23 20.82 7.40 21.10C7.57 21.39 7.75 21.66 7.95 21.93C8.14 22.19 8.35 22.45 8.57 22.69C8.79 22.93 9.02 23.17 9.26 23.39C9.50 23.61 9.76 23.82 10.02 24.02C10.29 24.21 10.56 24.40 10.84 24.57C11.12 24.74 11.41 24.89 11.71 25.03C12.00 25.17 12.31 25.30 12.62 25.41C12.93 25.52 13.24 25.62 13.56 25.70C13.88 25.78 14.20 25.84 14.53 25.89C14.85 25.94 15.18 25.97 15.51 25.99C15.83 26.00 16.17 26.00 16.49 25.99C16.82 25.97 17.15 25.94 17.47 25.89C17.80 25.84 18.12 25.78 18.44 25.70C18.76 25.62 19.07 25.52 19.38 25.41C19.69 25.30 20.00 25.17 20.29 25.03C20.59 24.89 20.88 24.74 21.16 24.57C21.44 24.40 21.71 24.21 21.98 24.02C22.24 23.82 22.50 23.61 22.74 23.39C22.98 23.17 23.21 22.93 23.43 22.69C23.65 22.45 23.86 22.19 24.05 21.93C24.25 21.66 24.43 21.39 24.60 21.10C24.77 20.82 24.92 20.53 25.06 20.23C25.20 19.94 25.32 19.63 25.43 19.32C25.54 19.01 25.64 18.70 25.71 18.38C25.79 18.06 25.85 17.73 25.90 17.41C25.95 17.09 25.97 16.76 25.99 16.43C26.01 16.10 26.00 15.77 26.00 15.44C26.00 15.11 26.00 14.79 26.00 14.46C26.00 14.13 26.00 13.80 26.00 13.47C26.00 13.14 26.00 12.81 26.00 12.49C26.00 12.16 26.00 11.83 26.00 11.50C26.00 11.17 26.00 10.84 26.00 10.51C26.00 10.19 26.00 9.86 26.00 9.53C26.00 9.20 26.00 8.87 26.00 8.54C26.00 8.21 26.00 7.89 26.00 7.56C26.00 7.23 26.00 6.90 26.00 6.57C26.00 6.24 26.00 5.91 26.00 5.59C26.00 5.26 26.00 4.76 26.00 4.60"); }
      100% { d: path("M14.70 8.20C14.70 8.29 14.70 8.56 14.70 8.75C14.70 8.93 14.70 9.11 14.70 9.29C14.70 9.48 14.70 9.66 14.70 9.84C14.70 10.02 14.70 10.21 14.70 10.39C14.70 10.57 14.70 10.75 14.70 10.93C14.70 11.12 14.70 11.30 14.70 11.48C14.70 11.66 14.70 11.85 14.70 12.03C14.70 12.21 14.70 12.39 14.70 12.58C14.70 12.76 14.70 12.94 14.70 13.12C14.70 13.31 14.70 13.49 14.70 13.67C14.70 13.85 14.70 14.03 14.70 14.22C14.70 14.40 14.70 14.58 14.70 14.76C14.70 14.95 14.70 15.13 14.70 15.31C14.70 15.49 14.70 15.68 14.70 15.86C14.70 16.04 14.70 16.22 14.70 16.40C14.70 16.59 14.70 16.77 14.70 16.95C14.70 17.13 14.70 17.32 14.70 17.50C14.70 17.68 14.70 17.86 14.70 18.05C14.70 18.23 14.70 18.41 14.70 18.59C14.70 18.78 14.70 18.96 14.70 19.14C14.70 19.32 14.70 19.50 14.70 19.69C14.70 19.87 14.70 20.05 14.70 20.23C14.70 20.42 14.70 20.60 14.70 20.78C14.70 20.96 14.68 21.15 14.71 21.33C14.73 21.50 14.78 21.69 14.87 21.84C14.96 22.00 15.09 22.15 15.23 22.25C15.38 22.35 15.56 22.43 15.73 22.47C15.90 22.51 16.10 22.51 16.27 22.47C16.44 22.43 16.62 22.35 16.77 22.25C16.91 22.15 17.04 22.00 17.13 21.84C17.22 21.69 17.27 21.50 17.29 21.33C17.32 21.15 17.30 20.96 17.30 20.78C17.30 20.60 17.30 20.42 17.30 20.23C17.30 20.05 17.30 19.87 17.30 19.69C17.30 19.50 17.30 19.32 17.30 19.14C17.30 18.96 17.30 18.78 17.30 18.59C17.30 18.41 17.30 18.23 17.30 18.05C17.30 17.86 17.30 17.68 17.30 17.50C17.30 17.32 17.30 17.13 17.30 16.95C17.30 16.77 17.30 16.59 17.30 16.40C17.30 16.22 17.30 16.04 17.30 15.86C17.30 15.68 17.30 15.49 17.30 15.31C17.30 15.13 17.30 14.95 17.30 14.76C17.30 14.58 17.30 14.40 17.30 14.22C17.30 14.03 17.30 13.85 17.30 13.67C17.30 13.49 17.30 13.31 17.30 13.12C17.30 12.94 17.30 12.76 17.30 12.58C17.30 12.39 17.30 12.21 17.30 12.03C17.30 11.85 17.30 11.66 17.30 11.48C17.30 11.30 17.30 11.12 17.30 10.93C17.30 10.75 17.30 10.57 17.30 10.39C17.30 10.21 17.30 10.02 17.30 9.84C17.30 9.66 17.30 9.48 17.30 9.29C17.30 9.11 17.30 8.93 17.30 8.75C17.30 8.56 17.30 8.29 17.30 8.20"); }
    }
    @keyframes ey {
      0%, 10% { d: path("M15.30 9.40C15.30 9.47 15.30 9.69 15.30 9.83C15.30 9.98 15.30 10.12 15.30 10.27C15.30 10.41 15.30 10.55 15.30 10.70C15.30 10.84 15.30 10.99 15.30 11.13C15.30 11.28 15.30 11.42 15.30 11.56C15.30 11.71 15.30 11.85 15.30 12.00C15.30 12.14 15.30 12.28 15.30 12.43C15.30 12.57 15.30 12.72 15.30 12.86C15.30 13.01 15.30 13.15 15.30 13.29C15.30 13.44 15.30 13.58 15.30 13.73C15.30 13.87 15.30 14.02 15.30 14.16C15.30 14.30 15.30 14.45 15.30 14.59C15.30 14.74 15.30 14.88 15.30 15.03C15.30 15.17 15.30 15.31 15.30 15.46C15.30 15.60 15.30 15.75 15.30 15.89C15.30 16.03 15.30 16.18 15.30 16.32C15.30 16.47 15.30 16.61 15.30 16.76C15.30 16.90 15.30 17.04 15.30 17.19C15.30 17.33 15.30 17.48 15.30 17.62C15.30 17.77 15.30 17.91 15.30 18.05C15.30 18.20 15.30 18.34 15.30 18.49C15.30 18.63 15.30 18.78 15.30 18.92C15.30 19.06 15.30 19.21 15.30 19.35C15.30 19.50 15.30 19.64 15.30 19.79C15.30 19.93 15.28 20.08 15.30 20.22C15.32 20.36 15.36 20.51 15.44 20.62C15.52 20.73 15.66 20.83 15.79 20.87C15.92 20.91 16.08 20.91 16.21 20.87C16.34 20.83 16.48 20.73 16.56 20.62C16.64 20.51 16.68 20.36 16.70 20.22C16.72 20.08 16.70 19.93 16.70 19.79C16.70 19.64 16.70 19.50 16.70 19.35C16.70 19.21 16.70 19.06 16.70 18.92C16.70 18.78 16.70 18.63 16.70 18.49C16.70 18.34 16.70 18.20 16.70 18.05C16.70 17.91 16.70 17.77 16.70 17.62C16.70 17.48 16.70 17.33 16.70 17.19C16.70 17.04 16.70 16.90 16.70 16.76C16.70 16.61 16.70 16.47 16.70 16.32C16.70 16.18 16.70 16.03 16.70 15.89C16.70 15.75 16.70 15.60 16.70 15.46C16.70 15.31 16.70 15.17 16.70 15.03C16.70 14.88 16.70 14.74 16.70 14.59C16.70 14.45 16.70 14.30 16.70 14.16C16.70 14.02 16.70 13.87 16.70 13.73C16.70 13.58 16.70 13.44 16.70 13.29C16.70 13.15 16.70 13.01 16.70 12.86C16.70 12.72 16.70 12.57 16.70 12.43C16.70 12.28 16.70 12.14 16.70 12.00C16.70 11.85 16.70 11.71 16.70 11.56C16.70 11.42 16.70 11.28 16.70 11.13C16.70 10.99 16.70 10.84 16.70 10.70C16.70 10.55 16.70 10.41 16.70 10.27C16.70 10.12 16.70 9.98 16.70 9.83C16.70 9.69 16.70 9.47 16.70 9.40"); }
      32%, 40% { d: path("M12.40 6.60C12.40 6.69 12.40 6.97 12.40 7.16C12.40 7.35 12.40 7.54 12.40 7.72C12.40 7.91 12.40 8.10 12.40 8.29C12.40 8.47 12.40 8.66 12.40 8.85C12.40 9.04 12.40 9.22 12.40 9.41C12.40 9.60 12.40 9.78 12.40 9.97C12.40 10.16 12.40 10.35 12.40 10.53C12.40 10.72 12.40 10.91 12.40 11.10C12.40 11.28 12.40 11.47 12.40 11.66C12.40 11.85 12.40 12.03 12.40 12.22C12.40 12.41 12.40 12.59 12.40 12.78C12.40 12.97 12.40 13.16 12.40 13.34C12.40 13.53 12.40 13.72 12.40 13.91C12.40 14.09 12.40 14.28 12.40 14.47C12.40 14.66 12.40 14.84 12.40 15.03C12.40 15.22 12.40 15.40 12.40 15.59C12.40 15.78 12.40 15.97 12.40 16.15C12.40 16.34 12.40 16.53 12.41 16.72C12.43 16.90 12.46 17.09 12.51 17.27C12.55 17.45 12.61 17.63 12.68 17.80C12.76 17.97 12.84 18.14 12.94 18.30C13.04 18.46 13.15 18.61 13.28 18.75C13.40 18.89 13.53 19.03 13.67 19.15C13.82 19.27 13.97 19.38 14.13 19.48C14.29 19.57 14.46 19.66 14.63 19.73C14.80 19.80 14.98 19.86 15.16 19.90C15.35 19.95 15.53 19.97 15.72 19.99C15.91 20.00 16.09 20.00 16.28 19.99C16.47 19.97 16.65 19.95 16.84 19.90C17.02 19.86 17.20 19.80 17.37 19.73C17.54 19.66 17.71 19.57 17.87 19.48C18.03 19.38 18.18 19.27 18.33 19.15C18.47 19.03 18.60 18.89 18.72 18.75C18.85 18.61 18.96 18.46 19.06 18.30C19.16 18.14 19.24 17.97 19.32 17.80C19.39 17.63 19.45 17.45 19.49 17.27C19.54 17.09 19.57 16.90 19.59 16.72C19.60 16.53 19.60 16.34 19.60 16.15C19.60 15.97 19.60 15.78 19.60 15.59C19.60 15.40 19.60 15.22 19.60 15.03C19.60 14.84 19.60 14.66 19.60 14.47C19.60 14.28 19.60 14.09 19.60 13.91C19.60 13.72 19.60 13.53 19.60 13.34C19.60 13.16 19.60 12.97 19.60 12.78C19.60 12.59 19.60 12.41 19.60 12.22C19.60 12.03 19.60 11.85 19.60 11.66C19.60 11.47 19.60 11.28 19.60 11.10C19.60 10.91 19.60 10.72 19.60 10.53C19.60 10.35 19.60 10.16 19.60 9.97C19.60 9.78 19.60 9.60 19.60 9.41C19.60 9.22 19.60 9.04 19.60 8.85C19.60 8.66 19.60 8.47 19.60 8.29C19.60 8.10 19.60 7.91 19.60 7.72C19.60 7.54 19.60 7.35 19.60 7.16C19.60 6.97 19.60 6.69 19.60 6.60"); }
      62%, 86% { d: path("M12.00 4.60C12.00 4.71 12.00 5.03 12.00 5.24C12.00 5.46 12.00 5.67 12.00 5.89C12.00 6.10 12.00 6.31 12.00 6.53C12.00 6.74 12.00 6.96 12.00 7.17C12.00 7.39 12.00 7.60 12.00 7.82C12.00 8.03 12.00 8.24 12.00 8.46C12.00 8.67 12.00 8.89 12.00 9.10C12.00 9.32 12.00 9.53 12.00 9.74C12.00 9.96 12.00 10.17 12.00 10.39C12.00 10.60 12.00 10.82 12.00 11.03C12.00 11.24 12.00 11.46 12.00 11.67C12.00 11.89 12.00 12.10 12.00 12.32C12.00 12.53 12.00 12.74 12.00 12.96C12.00 13.17 12.00 13.39 12.00 13.60C12.00 13.82 12.00 14.03 12.00 14.25C12.00 14.46 12.00 14.67 12.00 14.89C12.00 15.10 12.00 15.32 12.00 15.53C12.00 15.75 11.99 15.96 12.00 16.17C12.02 16.39 12.04 16.60 12.08 16.81C12.13 17.02 12.19 17.23 12.26 17.43C12.34 17.63 12.43 17.82 12.54 18.01C12.65 18.19 12.77 18.37 12.91 18.54C13.04 18.70 13.19 18.86 13.35 19.00C13.51 19.14 13.69 19.27 13.87 19.38C14.05 19.50 14.24 19.60 14.44 19.68C14.63 19.76 14.84 19.83 15.04 19.88C15.25 19.94 15.47 19.97 15.68 19.99C15.89 20.00 16.11 20.00 16.32 19.99C16.53 19.97 16.75 19.94 16.96 19.88C17.16 19.83 17.37 19.76 17.56 19.68C17.76 19.60 17.95 19.50 18.13 19.38C18.31 19.27 18.49 19.14 18.65 19.00C18.81 18.86 18.96 18.70 19.09 18.54C19.23 18.37 19.35 18.19 19.46 18.01C19.57 17.82 19.66 17.63 19.74 17.43C19.81 17.23 19.87 17.02 19.92 16.81C19.96 16.60 19.98 16.39 20.00 16.17C20.01 15.96 20.00 15.75 20.00 15.53C20.00 15.32 20.00 15.10 20.00 14.89C20.00 14.67 20.00 14.46 20.00 14.25C20.00 14.03 20.00 13.82 20.00 13.60C20.00 13.39 20.00 13.17 20.00 12.96C20.00 12.74 20.00 12.53 20.00 12.32C20.00 12.10 20.00 11.89 20.00 11.67C20.00 11.46 20.00 11.24 20.00 11.03C20.00 10.82 20.00 10.60 20.00 10.39C20.00 10.17 20.00 9.96 20.00 9.74C20.00 9.53 20.00 9.32 20.00 9.10C20.00 8.89 20.00 8.67 20.00 8.46C20.00 8.24 20.00 8.03 20.00 7.82C20.00 7.60 20.00 7.39 20.00 7.17C20.00 6.96 20.00 6.74 20.00 6.53C20.00 6.31 20.00 6.10 20.00 5.89C20.00 5.67 20.00 5.46 20.00 5.24C20.00 5.03 20.00 4.71 20.00 4.60"); }
      100% { d: path("M15.30 9.40C15.30 9.47 15.30 9.69 15.30 9.83C15.30 9.98 15.30 10.12 15.30 10.27C15.30 10.41 15.30 10.55 15.30 10.70C15.30 10.84 15.30 10.99 15.30 11.13C15.30 11.28 15.30 11.42 15.30 11.56C15.30 11.71 15.30 11.85 15.30 12.00C15.30 12.14 15.30 12.28 15.30 12.43C15.30 12.57 15.30 12.72 15.30 12.86C15.30 13.01 15.30 13.15 15.30 13.29C15.30 13.44 15.30 13.58 15.30 13.73C15.30 13.87 15.30 14.02 15.30 14.16C15.30 14.30 15.30 14.45 15.30 14.59C15.30 14.74 15.30 14.88 15.30 15.03C15.30 15.17 15.30 15.31 15.30 15.46C15.30 15.60 15.30 15.75 15.30 15.89C15.30 16.03 15.30 16.18 15.30 16.32C15.30 16.47 15.30 16.61 15.30 16.76C15.30 16.90 15.30 17.04 15.30 17.19C15.30 17.33 15.30 17.48 15.30 17.62C15.30 17.77 15.30 17.91 15.30 18.05C15.30 18.20 15.30 18.34 15.30 18.49C15.30 18.63 15.30 18.78 15.30 18.92C15.30 19.06 15.30 19.21 15.30 19.35C15.30 19.50 15.30 19.64 15.30 19.79C15.30 19.93 15.28 20.08 15.30 20.22C15.32 20.36 15.36 20.51 15.44 20.62C15.52 20.73 15.66 20.83 15.79 20.87C15.92 20.91 16.08 20.91 16.21 20.87C16.34 20.83 16.48 20.73 16.56 20.62C16.64 20.51 16.68 20.36 16.70 20.22C16.72 20.08 16.70 19.93 16.70 19.79C16.70 19.64 16.70 19.50 16.70 19.35C16.70 19.21 16.70 19.06 16.70 18.92C16.70 18.78 16.70 18.63 16.70 18.49C16.70 18.34 16.70 18.20 16.70 18.05C16.70 17.91 16.70 17.77 16.70 17.62C16.70 17.48 16.70 17.33 16.70 17.19C16.70 17.04 16.70 16.90 16.70 16.76C16.70 16.61 16.70 16.47 16.70 16.32C16.70 16.18 16.70 16.03 16.70 15.89C16.70 15.75 16.70 15.60 16.70 15.46C16.70 15.31 16.70 15.17 16.70 15.03C16.70 14.88 16.70 14.74 16.70 14.59C16.70 14.45 16.70 14.30 16.70 14.16C16.70 14.02 16.70 13.87 16.70 13.73C16.70 13.58 16.70 13.44 16.70 13.29C16.70 13.15 16.70 13.01 16.70 12.86C16.70 12.72 16.70 12.57 16.70 12.43C16.70 12.28 16.70 12.14 16.70 12.00C16.70 11.85 16.70 11.71 16.70 11.56C16.70 11.42 16.70 11.28 16.70 11.13C16.70 10.99 16.70 10.84 16.70 10.70C16.70 10.55 16.70 10.41 16.70 10.27C16.70 10.12 16.70 9.98 16.70 9.83C16.70 9.69 16.70 9.47 16.70 9.40"); }
    }
  </style>
  <path class="a" d="M6.00 4.60C6.00 4.76 6.00 5.26 6.00 5.59C6.00 5.91 6.00 6.24 6.00 6.57C6.00 6.90 6.00 7.23 6.00 7.56C6.00 7.89 6.00 8.21 6.00 8.54C6.00 8.87 6.00 9.20 6.00 9.53C6.00 9.86 6.00 10.19 6.00 10.51C6.00 10.84 6.00 11.17 6.00 11.50C6.00 11.83 6.00 12.16 6.00 12.49C6.00 12.81 6.00 13.14 6.00 13.47C6.00 13.80 6.00 14.13 6.00 14.46C6.00 14.79 6.00 15.11 6.00 15.44C6.00 15.77 5.99 16.10 6.01 16.43C6.03 16.76 6.05 17.09 6.10 17.41C6.15 17.73 6.21 18.06 6.29 18.38C6.36 18.70 6.46 19.01 6.57 19.32C6.68 19.63 6.80 19.94 6.94 20.23C7.08 20.53 7.23 20.82 7.40 21.10C7.57 21.39 7.75 21.66 7.95 21.93C8.14 22.19 8.35 22.45 8.57 22.69C8.79 22.93 9.02 23.17 9.26 23.39C9.50 23.61 9.76 23.82 10.02 24.02C10.29 24.21 10.56 24.40 10.84 24.57C11.12 24.74 11.41 24.89 11.71 25.03C12.00 25.17 12.31 25.30 12.62 25.41C12.93 25.52 13.24 25.62 13.56 25.70C13.88 25.78 14.20 25.84 14.53 25.89C14.85 25.94 15.18 25.97 15.51 25.99C15.83 26.00 16.17 26.00 16.49 25.99C16.82 25.97 17.15 25.94 17.47 25.89C17.80 25.84 18.12 25.78 18.44 25.70C18.76 25.62 19.07 25.52 19.38 25.41C19.69 25.30 20.00 25.17 20.29 25.03C20.59 24.89 20.88 24.74 21.16 24.57C21.44 24.40 21.71 24.21 21.98 24.02C22.24 23.82 22.50 23.61 22.74 23.39C22.98 23.17 23.21 22.93 23.43 22.69C23.65 22.45 23.86 22.19 24.05 21.93C24.25 21.66 24.43 21.39 24.60 21.10C24.77 20.82 24.92 20.53 25.06 20.23C25.20 19.94 25.32 19.63 25.43 19.32C25.54 19.01 25.64 18.70 25.71 18.38C25.79 18.06 25.85 17.73 25.90 17.41C25.95 17.09 25.97 16.76 25.99 16.43C26.01 16.10 26.00 15.77 26.00 15.44C26.00 15.11 26.00 14.79 26.00 14.46C26.00 14.13 26.00 13.80 26.00 13.47C26.00 13.14 26.00 12.81 26.00 12.49C26.00 12.16 26.00 11.83 26.00 11.50C26.00 11.17 26.00 10.84 26.00 10.51C26.00 10.19 26.00 9.86 26.00 9.53C26.00 9.20 26.00 8.87 26.00 8.54C26.00 8.21 26.00 7.89 26.00 7.56C26.00 7.23 26.00 6.90 26.00 6.57C26.00 6.24 26.00 5.91 26.00 5.59C26.00 5.26 26.00 4.76 26.00 4.60"/>
  <path class="y" d="M12.00 4.60C12.00 4.71 12.00 5.03 12.00 5.24C12.00 5.46 12.00 5.67 12.00 5.89C12.00 6.10 12.00 6.31 12.00 6.53C12.00 6.74 12.00 6.96 12.00 7.17C12.00 7.39 12.00 7.60 12.00 7.82C12.00 8.03 12.00 8.24 12.00 8.46C12.00 8.67 12.00 8.89 12.00 9.10C12.00 9.32 12.00 9.53 12.00 9.74C12.00 9.96 12.00 10.17 12.00 10.39C12.00 10.60 12.00 10.82 12.00 11.03C12.00 11.24 12.00 11.46 12.00 11.67C12.00 11.89 12.00 12.10 12.00 12.32C12.00 12.53 12.00 12.74 12.00 12.96C12.00 13.17 12.00 13.39 12.00 13.60C12.00 13.82 12.00 14.03 12.00 14.25C12.00 14.46 12.00 14.67 12.00 14.89C12.00 15.10 12.00 15.32 12.00 15.53C12.00 15.75 11.99 15.96 12.00 16.17C12.02 16.39 12.04 16.60 12.08 16.81C12.13 17.02 12.19 17.23 12.26 17.43C12.34 17.63 12.43 17.82 12.54 18.01C12.65 18.19 12.77 18.37 12.91 18.54C13.04 18.70 13.19 18.86 13.35 19.00C13.51 19.14 13.69 19.27 13.87 19.38C14.05 19.50 14.24 19.60 14.44 19.68C14.63 19.76 14.84 19.83 15.04 19.88C15.25 19.94 15.47 19.97 15.68 19.99C15.89 20.00 16.11 20.00 16.32 19.99C16.53 19.97 16.75 19.94 16.96 19.88C17.16 19.83 17.37 19.76 17.56 19.68C17.76 19.60 17.95 19.50 18.13 19.38C18.31 19.27 18.49 19.14 18.65 19.00C18.81 18.86 18.96 18.70 19.09 18.54C19.23 18.37 19.35 18.19 19.46 18.01C19.57 17.82 19.66 17.63 19.74 17.43C19.81 17.23 19.87 17.02 19.92 16.81C19.96 16.60 19.98 16.39 20.00 16.17C20.01 15.96 20.00 15.75 20.00 15.53C20.00 15.32 20.00 15.10 20.00 14.89C20.00 14.67 20.00 14.46 20.00 14.25C20.00 14.03 20.00 13.82 20.00 13.60C20.00 13.39 20.00 13.17 20.00 12.96C20.00 12.74 20.00 12.53 20.00 12.32C20.00 12.10 20.00 11.89 20.00 11.67C20.00 11.46 20.00 11.24 20.00 11.03C20.00 10.82 20.00 10.60 20.00 10.39C20.00 10.17 20.00 9.96 20.00 9.74C20.00 9.53 20.00 9.32 20.00 9.10C20.00 8.89 20.00 8.67 20.00 8.46C20.00 8.24 20.00 8.03 20.00 7.82C20.00 7.60 20.00 7.39 20.00 7.17C20.00 6.96 20.00 6.74 20.00 6.53C20.00 6.31 20.00 6.10 20.00 5.89C20.00 5.67 20.00 5.46 20.00 5.24C20.00 5.03 20.00 4.71 20.00 4.60"/>
</svg>
